<mxfile host="65bd71144e">
    <diagram id="1FBdTYcbO0OM_0W2Bze0" name="Page-1">
        <mxGraphModel dx="3162" dy="2193" grid="1" gridSize="10" guides="1" tooltips="1" connect="1" arrows="1" fold="1" page="1" pageScale="1" pageWidth="827" pageHeight="1169" math="0" shadow="0" adaptiveColors="none">
            <root>
                <mxCell id="0"/>
                <mxCell id="1" parent="0"/>
                <mxCell id="6" value="" style="rounded=0;whiteSpace=wrap;html=1;" parent="1" vertex="1">
                    <mxGeometry x="-230" y="-40" width="1670" height="870" as="geometry"/>
                </mxCell>
                <mxCell id="84" value="&lt;div style=&quot;language:fr;margin-top:0pt;margin-bottom:0pt;margin-left:&lt;br/&gt;.38in;text-indent:-.38in&quot; class=&quot;O0&quot;&gt;&lt;h2 data-pm-slice=&quot;1 1 []&quot;&gt;&lt;font face=&quot;Times New Roman&quot;&gt;&amp;nbsp; &amp;nbsp; &amp;nbsp; &amp;nbsp;Pilotage des Processus&lt;/font&gt;&lt;/h2&gt;&lt;p&gt;&lt;font face=&quot;Times New Roman&quot;&gt;&amp;nbsp; &amp;nbsp; &amp;nbsp; &amp;nbsp; &amp;nbsp; Il pilote tous les processus de l’entreprise.&lt;/font&gt;&lt;/p&gt;&lt;/div&gt;" style="rounded=0;whiteSpace=wrap;html=1;" parent="1" vertex="1">
                    <mxGeometry x="130" y="310" width="220" height="70" as="geometry"/>
                </mxCell>
                <mxCell id="103" value="" style="endArrow=none;html=1;entryX=0;entryY=0.5;entryDx=0;entryDy=0;" parent="1" edge="1">
                    <mxGeometry width="50" height="50" relative="1" as="geometry">
                        <mxPoint x="100" y="504.82000000000005" as="sourcePoint"/>
                        <mxPoint x="150" y="504.82000000000005" as="targetPoint"/>
                        <Array as="points">
                            <mxPoint x="120" y="504.41"/>
                        </Array>
                    </mxGeometry>
                </mxCell>
                <mxCell id="110" value="&lt;div style=&quot;language:fr;margin-top:0pt;margin-bottom:0pt;margin-left:&lt;br/&gt;.38in;text-indent:-.38in&quot; class=&quot;O0&quot;&gt;&lt;h2 style=&quot;&quot; data-pm-slice=&quot;1 1 []&quot;&gt;&lt;font face=&quot;Times New Roman&quot;&gt;&amp;nbsp; &amp;nbsp; &amp;nbsp; &amp;nbsp; &amp;nbsp; &amp;nbsp; &amp;nbsp; &amp;nbsp;Responsable&amp;nbsp; &amp;nbsp; &amp;nbsp; &amp;nbsp; &amp;nbsp; &amp;nbsp; &amp;nbsp; Financier&amp;nbsp; &amp;nbsp; &amp;nbsp;&amp;nbsp;&lt;span style=&quot;background-color: transparent; font-size: 12px; font-weight: normal; text-indent: -0.38in;&quot;&gt;Gère la comptabilité et&lt;/span&gt;&lt;span style=&quot;text-indent: -0.38in; background-color: transparent; font-size: 12px; font-weight: normal;&quot;&gt;&amp;nbsp;la trésorerie&lt;/span&gt;&lt;/font&gt;&lt;/h2&gt;&lt;/div&gt;" style="rounded=0;whiteSpace=wrap;html=1;align=center;" parent="1" vertex="1">
                    <mxGeometry x="-60" y="450" width="160" height="100" as="geometry"/>
                </mxCell>
                <mxCell id="111" value="&lt;div style=&quot;language:fr;margin-top:0pt;margin-bottom:0pt;margin-left:&lt;br/&gt;.38in;text-indent:-.38in&quot; class=&quot;O0&quot;&gt;&lt;h2 data-pm-slice=&quot;1 1 []&quot;&gt;&lt;font face=&quot;Times New Roman&quot;&gt;&amp;nbsp; &amp;nbsp; &amp;nbsp; &amp;nbsp;Comptable&lt;/font&gt;&lt;/h2&gt;&lt;p&gt;&lt;font face=&quot;Times New Roman&quot;&gt;&amp;nbsp; &amp;nbsp; &amp;nbsp; &amp;nbsp; &amp;nbsp; &amp;nbsp; &amp;nbsp; &amp;nbsp;Évalue la situation financière de l’entreprise.&lt;/font&gt;&lt;/p&gt;&lt;/div&gt;" style="rounded=0;whiteSpace=wrap;html=1;" parent="1" vertex="1">
                    <mxGeometry x="150" y="450" width="160" height="100" as="geometry"/>
                </mxCell>
                <mxCell id="112" value="&lt;div style=&quot;language:fr;margin-top:0pt;margin-bottom:0pt;margin-left:&lt;br/&gt;.38in;text-indent:-.38in&quot; class=&quot;O0&quot;&gt;&lt;div style=&quot;language:fr;margin-top:0pt;margin-bottom:0pt;margin-left:&lt;br/&gt;.38in;text-indent:-.38in&quot; class=&quot;O0&quot;&gt;&lt;h2 data-pm-slice=&quot;1 1 []&quot;&gt;&lt;font face=&quot;Times New Roman&quot;&gt;&amp;nbsp; &amp;nbsp; &amp;nbsp; &amp;nbsp;Responsable Partenaires&amp;nbsp; &amp;nbsp; &amp;nbsp; &amp;nbsp; &amp;nbsp; &amp;nbsp; &amp;nbsp;&lt;/font&gt;&lt;span style=&quot;font-family: &amp;quot;Times New Roman&amp;quot;; text-indent: -0.38in; background-color: transparent; font-size: 12px; font-weight: normal;&quot;&gt;Supervise les opérations régionales.&lt;/span&gt;&lt;/h2&gt;&lt;/div&gt;&lt;/div&gt;" style="rounded=0;whiteSpace=wrap;html=1;" parent="1" vertex="1">
                    <mxGeometry x="370" y="450" width="190" height="100" as="geometry"/>
                </mxCell>
                <mxCell id="118" value="&lt;div style=&quot;language:fr;margin-top:0pt;margin-bottom:0pt;margin-left:&lt;br/&gt;.38in;text-indent:-.38in&quot; class=&quot;O0&quot;&gt;&lt;div style=&quot;language:fr;margin-top:0pt;margin-bottom:0pt;margin-left:&lt;br/&gt;.38in;text-indent:-.38in&quot; class=&quot;O0&quot;&gt;&lt;div style=&quot;language:fr;margin-top:0pt;margin-bottom:0pt;margin-left:&lt;br/&gt;.38in;text-indent:-.38in&quot; class=&quot;O0&quot;&gt;&lt;font face=&quot;Times New Roman&quot; style=&quot;font-size: 16px;&quot;&gt;&amp;nbsp; &amp;nbsp; &amp;nbsp; &amp;nbsp;&amp;nbsp;DIRECTEUR GENERALE&lt;/font&gt;&lt;/div&gt;&lt;div style=&quot;language:fr;margin-top:0pt;margin-bottom:0pt;margin-left:&lt;br/&gt;.38in;text-indent:-.38in&quot; class=&quot;O0&quot;&gt;&lt;font face=&quot;Times New Roman&quot; style=&quot;&quot;&gt;&lt;p style=&quot;&quot; data-pm-slice=&quot;1 1 []&quot;&gt;&lt;font style=&quot;font-size: 12px;&quot;&gt;&amp;nbsp; &amp;nbsp; &amp;nbsp; &amp;nbsp; &amp;nbsp; &amp;nbsp; Elle prend des décisions&amp;nbsp;&amp;nbsp;&lt;/font&gt;&lt;font style=&quot;text-indent: -0.38in; background-color: transparent;&quot;&gt;et évalue les budgets&lt;/font&gt;&lt;span style=&quot;text-indent: -0.38in; background-color: transparent; font-size: 16px;&quot;&gt;.&lt;/span&gt;&lt;/p&gt;&lt;/font&gt;&lt;/div&gt;&lt;/div&gt;&lt;/div&gt;" style="rounded=0;whiteSpace=wrap;html=1;" parent="1" vertex="1">
                    <mxGeometry x="620" y="110" width="220" height="100" as="geometry"/>
                </mxCell>
                <mxCell id="119" value="&lt;div style=&quot;language:fr;margin-top:0pt;margin-bottom:0pt;margin-left:&lt;br/&gt;.38in;text-indent:-.38in&quot; class=&quot;O0&quot;&gt;&lt;div style=&quot;language:fr;margin-top:0pt;margin-bottom:0pt;margin-left:&lt;br/&gt;.38in;text-indent:-.38in&quot; class=&quot;O0&quot;&gt;&lt;div style=&quot;language:fr;margin-top:0pt;margin-bottom:0pt;margin-left:&lt;br/&gt;.38in;text-indent:-.38in&quot; class=&quot;O0&quot;&gt;&lt;h2 data-pm-slice=&quot;1 1 []&quot;&gt;&lt;font face=&quot;Times New Roman&quot;&gt;&amp;nbsp; &amp;nbsp; &amp;nbsp; &amp;nbsp; Commercial et Marketing&lt;/font&gt;&lt;/h2&gt;&lt;p&gt;&lt;font face=&quot;Times New Roman&quot;&gt;&amp;nbsp; &amp;nbsp; &amp;nbsp; &amp;nbsp; &amp;nbsp; &amp;nbsp; &amp;nbsp;Met en œuvre des stratégies pour les ventes.&lt;/font&gt;&lt;/p&gt;&lt;/div&gt;&lt;/div&gt;&lt;/div&gt;" style="rounded=0;whiteSpace=wrap;html=1;" parent="1" vertex="1">
                    <mxGeometry x="1020" y="320" width="210" height="80" as="geometry"/>
                </mxCell>
                <mxCell id="121" value="&lt;div style=&quot;language:fr;margin-top:0pt;margin-bottom:0pt;margin-left:&lt;br/&gt;.38in;text-indent:-.38in&quot; class=&quot;O0&quot;&gt;&lt;div style=&quot;language:fr;margin-top:0pt;margin-bottom:0pt;margin-left:&lt;br/&gt;.38in;text-indent:-.38in&quot; class=&quot;O0&quot;&gt;&lt;div style=&quot;language:fr;margin-top:0pt;margin-bottom:0pt;margin-left:&lt;br/&gt;.38in;text-indent:-.38in&quot; class=&quot;O0&quot;&gt;&lt;h2 data-pm-slice=&quot;1 1 []&quot;&gt;&lt;font face=&quot;Times New Roman&quot;&gt;&amp;nbsp; &amp;nbsp; &amp;nbsp; &amp;nbsp; Chef Études Projets&lt;/font&gt;&lt;/h2&gt;&lt;p&gt;&lt;font face=&quot;Times New Roman&quot;&gt;&amp;nbsp; &amp;nbsp; &amp;nbsp; &amp;nbsp; &amp;nbsp;Met en œuvre des projets de développement.&lt;/font&gt;&lt;/p&gt;&lt;/div&gt;&lt;/div&gt;&lt;/div&gt;" style="rounded=0;whiteSpace=wrap;html=1;" parent="1" vertex="1">
                    <mxGeometry x="620" y="450" width="240" height="100" as="geometry"/>
                </mxCell>
                <mxCell id="122" value="&lt;div style=&quot;language:fr;margin-top:0pt;margin-bottom:0pt;margin-left:&lt;br/&gt;.38in;text-indent:-.38in&quot; class=&quot;O0&quot;&gt;&lt;div style=&quot;language:fr;margin-top:0pt;margin-bottom:0pt;margin-left:&lt;br/&gt;.38in;text-indent:-.38in&quot; class=&quot;O0&quot;&gt;&lt;h2 data-pm-slice=&quot;1 1 []&quot;&gt;&lt;font face=&quot;Times New Roman&quot;&gt;Responsable Technique&lt;/font&gt;&lt;/h2&gt;&lt;p&gt;&lt;font face=&quot;Times New Roman&quot;&gt;&amp;nbsp; &amp;nbsp; &amp;nbsp; &amp;nbsp; &amp;nbsp; &amp;nbsp; &amp;nbsp; &amp;nbsp; Supervise production,&amp;nbsp;&amp;nbsp;&lt;/font&gt;&lt;span style=&quot;font-family: &amp;quot;Times New Roman&amp;quot;; text-indent: -0.38in; background-color: transparent;&quot;&gt;logistique et maintenance.&lt;/span&gt;&lt;/p&gt;&lt;/div&gt;&lt;/div&gt;" style="rounded=0;whiteSpace=wrap;html=1;" parent="1" vertex="1">
                    <mxGeometry x="620" y="320" width="240" height="70" as="geometry"/>
                </mxCell>
                <mxCell id="137" value="" style="endArrow=classic;html=1;entryX=0.5;entryY=0;entryDx=0;entryDy=0;" edge="1" parent="1" target="110">
                    <mxGeometry width="50" height="50" relative="1" as="geometry">
                        <mxPoint x="240" y="420" as="sourcePoint"/>
                        <mxPoint x="255" y="380" as="targetPoint"/>
                        <Array as="points">
                            <mxPoint x="20" y="420"/>
                        </Array>
                    </mxGeometry>
                </mxCell>
                <mxCell id="138" value="" style="endArrow=classic;html=1;exitX=0.5;exitY=1;exitDx=0;exitDy=0;entryX=0.566;entryY=-0.028;entryDx=0;entryDy=0;entryPerimeter=0;" edge="1" parent="1" source="84" target="111">
                    <mxGeometry width="50" height="50" relative="1" as="geometry">
                        <mxPoint x="410" y="370" as="sourcePoint"/>
                        <mxPoint x="460" y="320" as="targetPoint"/>
                    </mxGeometry>
                </mxCell>
                <mxCell id="139" value="" style="endArrow=classic;html=1;entryX=0.5;entryY=0;entryDx=0;entryDy=0;" edge="1" parent="1" target="84">
                    <mxGeometry width="50" height="50" relative="1" as="geometry">
                        <mxPoint x="732.39990234375" y="260" as="sourcePoint"/>
                        <mxPoint x="420" y="190" as="targetPoint"/>
                        <Array as="points">
                            <mxPoint x="240" y="260"/>
                        </Array>
                    </mxGeometry>
                </mxCell>
                <mxCell id="140" value="" style="endArrow=classic;html=1;entryX=0.5;entryY=0;entryDx=0;entryDy=0;" edge="1" parent="1" target="112">
                    <mxGeometry width="50" height="50" relative="1" as="geometry">
                        <mxPoint x="240" y="420" as="sourcePoint"/>
                        <mxPoint x="480" y="340" as="targetPoint"/>
                        <Array as="points">
                            <mxPoint x="465" y="420"/>
                        </Array>
                    </mxGeometry>
                </mxCell>
                <mxCell id="141" value="" style="endArrow=classic;html=1;entryX=0.593;entryY=0.01;entryDx=0;entryDy=0;entryPerimeter=0;" edge="1" parent="1" target="119">
                    <mxGeometry width="50" height="50" relative="1" as="geometry">
                        <mxPoint x="730" y="260" as="sourcePoint"/>
                        <mxPoint x="810" y="230" as="targetPoint"/>
                        <Array as="points">
                            <mxPoint x="1145" y="260"/>
                        </Array>
                    </mxGeometry>
                </mxCell>
                <mxCell id="142" value="" style="endArrow=classic;html=1;exitX=0.5;exitY=1;exitDx=0;exitDy=0;entryX=0.5;entryY=0;entryDx=0;entryDy=0;" edge="1" parent="1" source="122" target="121">
                    <mxGeometry width="50" height="50" relative="1" as="geometry">
                        <mxPoint x="570" y="430" as="sourcePoint"/>
                        <mxPoint x="620" y="380" as="targetPoint"/>
                    </mxGeometry>
                </mxCell>
                <mxCell id="143" value="" style="endArrow=classic;html=1;exitX=0.5;exitY=1;exitDx=0;exitDy=0;entryX=0.464;entryY=-0.011;entryDx=0;entryDy=0;entryPerimeter=0;" edge="1" parent="1" source="118" target="122">
                    <mxGeometry width="50" height="50" relative="1" as="geometry">
                        <mxPoint x="450" y="410" as="sourcePoint"/>
                        <mxPoint x="500" y="360" as="targetPoint"/>
                    </mxGeometry>
                </mxCell>
            </root>
        </mxGraphModel>
    </diagram>
</mxfile>
